<svg xmlns="http://www.w3.org/2000/svg" version="1.1" xmlns:xlink="http://www.w3.org/1999/xlink" width="1000" height="1000"><style>
    #light-icon {
      display: inline;
    }
    #dark-icon {
      display: none;
    }

    @media (prefers-color-scheme: dark) {
      #light-icon {
        display: none;
      }
      #dark-icon {
        display: inline;
      }
    }
  </style><g id="light-icon"><svg xmlns="http://www.w3.org/2000/svg" version="1.1" xmlns:xlink="http://www.w3.org/1999/xlink" width="1000" height="1000"><g clip-path="url(#SvgjsClipPath1098)"><rect width="1000" height="1000" fill="#ffffff"></rect><g transform="matrix(1.1731188201776437,0,0,1.1731188201776437,150,168.64672364672367)"><svg xmlns="http://www.w3.org/2000/svg" version="1.1" xmlns:xlink="http://www.w3.org/1999/xlink" width="596.7" height="564.91"><svg xmlns="http://www.w3.org/2000/svg" version="1.0" viewBox="217 161.19 596.7 564.91"><path d="M514.2 163.5c-2.9 1.3-7.4 3.9-10 5.6-6 4.2-21.3 19-25.9 25.1l-3.5 4.8-4.1-5c-11.8-14.1-27.6-20.9-48.5-21-9.7 0-12.5.8-14.2 3.9-.8 1.6-.2 2.8 2.9 6.6 6.7 8.1 8.2 14.7 9.2 39.5.4 11.8 1.3 23.7 1.9 26.5 5.5 26 20.5 46.9 43.2 60.2 4.3 2.5 8.2 5.1 8.8 5.8.7.9-.1 3.1-3.2 8.1-8.5 14-15.1 30.4-18.2 45.4-.9 4.1-2.1 14.1-2.8 22.2s-1.6 14.4-2 14.2c-.4-.3-.8-1.6-.8-2.9 0-1.2-1.3-7.6-3-14.1-5-20.1-14.9-37.6-28-49.8-14.3-13.2-29.3-20.4-54.5-26.1-13.7-3.1-17.1-3.2-18.5-.4-1.4 2.6-.4 3.8 6.5 8.4 8.8 5.9 14.6 16 20.4 35.5 4.1 13.8 8.1 21.7 14.3 28.6 6.6 7.2 13.2 11.6 29.8 19.9 16.2 8.1 20.1 10.7 29.7 19.8 6.3 6 7.5 7.7 8.9 12.6 8.4 30.5 21.2 53.1 41.8 73.6 14.1 14 25.7 22.5 41.3 30.2 12.3 6.2 14.6 6.3 14.1 1.1-.3-3.1-1-3.6-9.3-7.8-10.6-5.3-19.8-13.8-23.4-21.5-3.5-7.5-4-19.7-1.2-29.8 4-14.7 11.1-25.9 19.3-30.7 6.8-3.8 13.3-3.9 29.2-.5 14.8 3.2 26.2 3.4 32.2.4 7.6-3.6 13.4-12 13.4-19.4 0-1.1-.6-4.5-1.4-7.5l-1.4-5.5 4.3-4c5.2-4.7 5.5-5.6 3.6-11.2-1.3-3.9-1.2-4.3.8-6.9 3.2-4.1 2.8-8.7-1.4-13.3-3.9-4.3-3.8-4.5 3.3-7.6 2.3-1 5.8-3.6 7.7-5.7 5.8-6.4 4.5-11.3-6.7-25.5-13.2-16.6-15.1-20.9-16.8-37.3-1.1-11.6-3.7-23.6-6.5-30.3-2-4.7-1.9-9.1.1-10.8.9-.8 4.9-3 8.8-4.9 8.6-4.3 9.5-6.5 4.5-11.6-5.2-5.4-12.6-7.7-24.2-7.8-9.5 0-9.8-.1-9.2-2 1.4-4.9 4.5-28.6 4.5-34.4 0-6.1-1.7-12.3-3.8-13.6-4.9-3-20-2.3-30.9 1.5-3.1 1-5.9 1.9-6.3 1.9s-1-3.4-1.2-7.5c-.4-6.3-1.2-9-4.7-16-5.9-11.9-9.2-13.5-18.9-9m10.1 11.8c3.7 5.7 6.8 20.5 4.9 23.3-.4.6-4.7 3.7-9.6 6.9-25.6 16.8-41.5 40.5-45.9 68.7-1.5 9.1-2 8.7-3.7-2.7-1.4-10.1-1.2-24 .5-33.6 4.5-25.8 16.7-45.1 37.7-59.9 8.3-5.9 13.4-6.7 16.1-2.7m-87.1 7.8c11.8 2.5 26.6 12.5 31.2 21.2 1.9 3.3 1.9 3.4-.9 10.3-8.8 22-9.2 54.2-1.1 80 1.4 4.3 2.4 7.9 2.2 8.1-.6.6-13.3-10.6-18.4-16.1-14.2-15.6-19.8-32.8-20.8-63.6-.6-17.9-2.4-30.2-5.5-36.1-1-2.1-1.9-4.1-1.9-4.4 0-.9 9.7-.5 15.2.6m130.9 17.8c2.1 1.7 2.3 2.5 2.1 10.7-1 39.2-20.2 69.4-54.3 85.3-10.6 5-31.7 12.3-32.3 11.2-.3-.4-1.1-4.1-1.7-8.2-3.9-24.8 7.8-57.6 26.3-74.4 7.9-7.2 25.2-18.1 34-21.5 12.6-4.9 22.3-6 25.9-3.1m25.1 50.6q8.4 1.05 3.6 3.6c-5.3 2.8-11.3 8.9-19.7 19.8-19.4 25.4-33.8 33.9-61.1 35.7l-8.5.5 12.1-5.9c6.7-3.3 15-7.9 18.5-10.3 12.6-8.5 23.3-21.1 30.5-36.2l3.4-7.2 5.8-.5c5.8-.6 7-.5 15.4.5m-6.1 28.7c2.6 4.9 6 19.9 7 31.2 1.5 18 2.7 20.6 18.1 39.7 4.3 5.3 7.8 10.6 7.8 11.7 0 2.4-2.2 4.3-8.7 7.6-9.1 4.5-10.4 8.7-4.8 16 1.9 2.6 3.5 5.1 3.5 5.6s-1.8 2.1-4 3.5c-5 3.2-5.1 5.5-.4 9.3l3.6 3-3.5 1.7c-5 2.4-6 5.6-5.2 16.7.5 8.3.4 9.6-1.5 12.6-4.5 7.2-16 9-32 5.1-17.8-4.3-26.4-4.3-35.1.2-9.8 4.9-20.8 21.6-24.3 36.9-1.8 7.3-2.1 21.8-.7 26.8.5 1.7.6 3.2.2 3.2s-4.6-3.8-9.3-8.5c-20-19.7-25.1-34.9-16.9-50.2 1.8-3.3 8.2-11.5 14.2-18.3 15.1-17 18.6-22.1 28.8-43.4 4.9-10.3 11.3-22.4 14.1-27.1 4.5-7.3 5-8.6 4-10.5-1-2-1.7-2.1-5.8-1.5-17.6 2.6-40.7 15.6-51.7 29.2-12.7 15.6-21.2 38.1-21.6 57.2-.1 4.5-.1 4.5-2.6-3.9-2.4-7.7-2.6-10.2-2.7-25.5 0-17.4 1-26.9 4.6-41 4-16 10.5-31.3 17.3-40.7 4.2-5.7 7.4-6.8 20.3-6.8 5.1 0 13.6-.5 18.8-1.1 27.9-3.1 44.2-12 60.9-33.3 3.3-4.2 6.1-7.6 6.2-7.6s.8 1 1.4 2.2m-199.6 49.2c24.7 11.8 40.6 31.7 48.4 60.6 1 3.9 1.7 7 1.5 7-.1 0-3.1-4.4-6.6-9.8-12.7-19.2-37.3-47.2-50.3-57-3.3-2.5-6.4-5-7-5.5-2-1.9 5 .5 14 4.7m3 21.8c10 10.3 17.4 18.9 25.2 29.3 5.6 7.5 15.6 22.5 15 22.5-1.7 0-27.9-14-32.4-17.3-10.2-7.6-16.1-17-20.9-33.8-1.5-5.2-3.5-11.3-4.5-13.7-1.1-2.4-1.9-4.6-1.9-4.9 0-1 11.6 9.6 19.5 17.9m125.7 34.9c-6.4 12.8-13.2 25.4-14.9 27.8-1.8 2.4-8.2 9.7-14.2 16.3-6.1 6.5-11.8 13.2-12.8 14.9-.9 1.6-2 2.9-2.3 2.9-1.1 0-1.1-9.3 0-17.3 4.1-29.8 19.9-51.6 47-64.6 4.6-2.3 8.5-3.9 8.6-3.8.2.2-4.9 10.9-11.4 23.8M217 662.5V726h18l.2-28.3.3-28.2 25.8-.3 25.7-.2v-12h-52v-44h62v-14h-80zm118 0V726h19v-49.5h22.8l14.2 22.8c7.9 12.6 15 23.7 15.9 24.8 1.4 1.8 2.7 2 12.4 1.7l10.7-.3-17.5-26.3c-9.6-14.4-16.9-26.2-16.3-26.2 2.5 0 13.5-5.8 17.2-9.1 8.3-7.3 12.2-17.5 11.3-30-.9-14.1-7.8-24.3-20-30-8.9-4.1-16.1-4.9-44.4-4.9H335zm48.9-49.5c14.6 2.4 21.1 9.8 21.1 24.2 0 9.2-1.8 14.5-6.4 19.3-5.9 6.2-11.3 7.5-29.8 7.5H354v-52h11.8c6.4 0 14.6.5 18.1 1m86.6 49.5V726h82l-.1-6.7-.2-6.8-31.1-.3-31.1-.2v-45h50v-13h-50v-42l29.5.3 29.5.3V599h-78.5zm113.7-59.8c1.2 2.1 11.5 19 22.8 37.5l20.5 33.7V726H647v-52.3l12.9-21.1c7-11.6 17.2-28.2 22.5-36.9 5.3-8.6 9.6-15.9 9.6-16.2s-3.6-.5-8.1-.3l-8.1.3-17 29c-9.3 15.9-17.2 29.6-17.7 30.3-.5.8-7.3-9.6-19.2-29.3L603.5 599h-21.7zm160.3.5c-.9 2.4-9.3 24.1-18.7 48.3-9.3 24.2-19 49.2-21.5 55.5s-5.1 13.2-5.9 15.2l-1.3 3.8h15.5l7-19.3 6.9-19.2h51.9l7.1 19 7 19 10.6.3 10.6.3-11.4-29.3c-6.3-16.1-17.3-44.7-24.6-63.5L764.5 599h-18.3zm17 38.8c4.2 11.8 8.8 24.1 10.1 27.2l2.3 5.8h-21c-11.5 0-20.9-.2-20.9-.5s4.1-11.6 9.1-25.2c5-13.7 9.6-26.1 10.1-27.6.6-1.6 1.4-2.5 1.8-2 .4.4 4.2 10.5 8.5 22.3"></path></svg></svg></g></g><defs><clipPath id="SvgjsClipPath1098"><rect width="1000" height="1000" x="0" y="0" rx="250" ry="250"></rect></clipPath></defs></svg></g><g id="dark-icon"><svg xmlns="http://www.w3.org/2000/svg" version="1.1" xmlns:xlink="http://www.w3.org/1999/xlink" width="1000" height="1000"><g clip-path="url(#SvgjsClipPath1099)"><rect width="1000" height="1000" fill="#ffffff"></rect><g transform="matrix(1.1731188201776437,0,0,1.1731188201776437,150,168.64672364672367)"><svg xmlns="http://www.w3.org/2000/svg" version="1.1" xmlns:xlink="http://www.w3.org/1999/xlink" width="596.7" height="564.91"><svg xmlns="http://www.w3.org/2000/svg" version="1.0" viewBox="217 161.19 596.7 564.91"><path d="M514.2 163.5c-2.9 1.3-7.4 3.9-10 5.6-6 4.2-21.3 19-25.9 25.1l-3.5 4.8-4.1-5c-11.8-14.1-27.6-20.9-48.5-21-9.7 0-12.5.8-14.2 3.9-.8 1.6-.2 2.8 2.9 6.6 6.7 8.1 8.2 14.7 9.2 39.5.4 11.8 1.3 23.7 1.9 26.5 5.5 26 20.5 46.9 43.2 60.2 4.3 2.5 8.2 5.1 8.8 5.8.7.9-.1 3.1-3.2 8.1-8.5 14-15.1 30.4-18.2 45.4-.9 4.1-2.1 14.1-2.8 22.2s-1.6 14.4-2 14.2c-.4-.3-.8-1.6-.8-2.9 0-1.2-1.3-7.6-3-14.1-5-20.1-14.9-37.6-28-49.8-14.3-13.2-29.3-20.4-54.5-26.1-13.7-3.1-17.1-3.2-18.5-.4-1.4 2.6-.4 3.8 6.5 8.4 8.8 5.9 14.6 16 20.4 35.5 4.1 13.8 8.1 21.7 14.3 28.6 6.6 7.2 13.2 11.6 29.8 19.9 16.2 8.1 20.1 10.7 29.7 19.8 6.3 6 7.5 7.7 8.9 12.6 8.4 30.5 21.2 53.1 41.8 73.6 14.1 14 25.7 22.5 41.3 30.2 12.3 6.2 14.6 6.3 14.1 1.1-.3-3.1-1-3.6-9.3-7.8-10.6-5.3-19.8-13.8-23.4-21.5-3.5-7.5-4-19.7-1.2-29.8 4-14.7 11.1-25.9 19.3-30.7 6.8-3.8 13.3-3.9 29.2-.5 14.8 3.2 26.2 3.4 32.2.4 7.6-3.6 13.4-12 13.4-19.4 0-1.1-.6-4.5-1.4-7.5l-1.4-5.5 4.3-4c5.2-4.7 5.5-5.6 3.6-11.2-1.3-3.9-1.2-4.3.8-6.9 3.2-4.1 2.8-8.7-1.4-13.3-3.9-4.3-3.8-4.5 3.3-7.6 2.3-1 5.8-3.6 7.7-5.7 5.8-6.4 4.5-11.3-6.7-25.5-13.2-16.6-15.1-20.9-16.8-37.3-1.1-11.6-3.7-23.6-6.5-30.3-2-4.7-1.9-9.1.1-10.8.9-.8 4.9-3 8.8-4.9 8.6-4.3 9.5-6.5 4.5-11.6-5.2-5.4-12.6-7.7-24.2-7.8-9.5 0-9.8-.1-9.2-2 1.4-4.9 4.5-28.6 4.5-34.4 0-6.1-1.7-12.3-3.8-13.6-4.9-3-20-2.3-30.9 1.5-3.1 1-5.9 1.9-6.3 1.9s-1-3.4-1.2-7.5c-.4-6.3-1.2-9-4.7-16-5.9-11.9-9.2-13.5-18.9-9m10.1 11.8c3.7 5.7 6.8 20.5 4.9 23.3-.4.6-4.7 3.7-9.6 6.9-25.6 16.8-41.5 40.5-45.9 68.7-1.5 9.1-2 8.7-3.7-2.7-1.4-10.1-1.2-24 .5-33.6 4.5-25.8 16.7-45.1 37.7-59.9 8.3-5.9 13.4-6.7 16.1-2.7m-87.1 7.8c11.8 2.5 26.6 12.5 31.2 21.2 1.9 3.3 1.9 3.4-.9 10.3-8.8 22-9.2 54.2-1.1 80 1.4 4.3 2.4 7.9 2.2 8.1-.6.6-13.3-10.6-18.4-16.1-14.2-15.6-19.8-32.8-20.8-63.6-.6-17.9-2.4-30.2-5.5-36.1-1-2.1-1.9-4.1-1.9-4.4 0-.9 9.7-.5 15.2.6m130.9 17.8c2.1 1.7 2.3 2.5 2.1 10.7-1 39.2-20.2 69.4-54.3 85.3-10.6 5-31.7 12.3-32.3 11.2-.3-.4-1.1-4.1-1.7-8.2-3.9-24.8 7.8-57.6 26.3-74.4 7.9-7.2 25.2-18.1 34-21.5 12.6-4.9 22.3-6 25.9-3.1m25.1 50.6q8.4 1.05 3.6 3.6c-5.3 2.8-11.3 8.9-19.7 19.8-19.4 25.4-33.8 33.9-61.1 35.7l-8.5.5 12.1-5.9c6.7-3.3 15-7.9 18.5-10.3 12.6-8.5 23.3-21.1 30.5-36.2l3.4-7.2 5.8-.5c5.8-.6 7-.5 15.4.5m-6.1 28.7c2.6 4.9 6 19.9 7 31.2 1.5 18 2.7 20.6 18.1 39.7 4.3 5.3 7.8 10.6 7.8 11.7 0 2.4-2.2 4.3-8.7 7.6-9.1 4.5-10.4 8.7-4.8 16 1.9 2.6 3.5 5.1 3.5 5.6s-1.8 2.1-4 3.5c-5 3.2-5.1 5.5-.4 9.3l3.6 3-3.5 1.7c-5 2.4-6 5.6-5.2 16.7.5 8.3.4 9.6-1.5 12.6-4.5 7.2-16 9-32 5.1-17.8-4.3-26.4-4.3-35.1.2-9.8 4.9-20.8 21.6-24.3 36.9-1.8 7.3-2.1 21.8-.7 26.8.5 1.7.6 3.2.2 3.2s-4.6-3.8-9.3-8.5c-20-19.7-25.1-34.9-16.9-50.2 1.8-3.3 8.2-11.5 14.2-18.3 15.1-17 18.6-22.1 28.8-43.4 4.9-10.3 11.3-22.4 14.1-27.1 4.5-7.3 5-8.6 4-10.5-1-2-1.7-2.1-5.8-1.5-17.6 2.6-40.7 15.6-51.7 29.2-12.7 15.6-21.2 38.1-21.6 57.2-.1 4.5-.1 4.5-2.6-3.9-2.4-7.7-2.6-10.2-2.7-25.5 0-17.4 1-26.9 4.6-41 4-16 10.5-31.3 17.3-40.7 4.2-5.7 7.4-6.8 20.3-6.8 5.1 0 13.6-.5 18.8-1.1 27.9-3.1 44.2-12 60.9-33.3 3.3-4.2 6.1-7.6 6.2-7.6s.8 1 1.4 2.2m-199.6 49.2c24.7 11.8 40.6 31.7 48.4 60.6 1 3.9 1.7 7 1.5 7-.1 0-3.1-4.4-6.6-9.8-12.7-19.2-37.3-47.2-50.3-57-3.3-2.5-6.4-5-7-5.5-2-1.9 5 .5 14 4.7m3 21.8c10 10.3 17.4 18.9 25.2 29.3 5.6 7.5 15.6 22.5 15 22.5-1.7 0-27.9-14-32.4-17.3-10.2-7.6-16.1-17-20.9-33.8-1.5-5.2-3.5-11.3-4.5-13.7-1.1-2.4-1.9-4.6-1.9-4.9 0-1 11.6 9.6 19.5 17.9m125.7 34.9c-6.4 12.8-13.2 25.4-14.9 27.8-1.8 2.4-8.2 9.7-14.2 16.3-6.1 6.5-11.8 13.2-12.8 14.9-.9 1.6-2 2.9-2.3 2.9-1.1 0-1.1-9.3 0-17.3 4.1-29.8 19.9-51.6 47-64.6 4.6-2.3 8.5-3.9 8.6-3.8.2.2-4.9 10.9-11.4 23.8M217 662.5V726h18l.2-28.3.3-28.2 25.8-.3 25.7-.2v-12h-52v-44h62v-14h-80zm118 0V726h19v-49.5h22.8l14.2 22.8c7.9 12.6 15 23.7 15.9 24.8 1.4 1.8 2.7 2 12.4 1.7l10.7-.3-17.5-26.3c-9.6-14.4-16.9-26.2-16.3-26.2 2.5 0 13.5-5.8 17.2-9.1 8.3-7.3 12.2-17.5 11.3-30-.9-14.1-7.8-24.3-20-30-8.9-4.1-16.1-4.9-44.4-4.9H335zm48.9-49.5c14.6 2.4 21.1 9.8 21.1 24.2 0 9.2-1.8 14.5-6.4 19.3-5.9 6.2-11.3 7.5-29.8 7.5H354v-52h11.8c6.4 0 14.6.5 18.1 1m86.6 49.5V726h82l-.1-6.7-.2-6.8-31.1-.3-31.1-.2v-45h50v-13h-50v-42l29.5.3 29.5.3V599h-78.5zm113.7-59.8c1.2 2.1 11.5 19 22.8 37.5l20.5 33.7V726H647v-52.3l12.9-21.1c7-11.6 17.2-28.2 22.5-36.9 5.3-8.6 9.6-15.9 9.6-16.2s-3.6-.5-8.1-.3l-8.1.3-17 29c-9.3 15.9-17.2 29.6-17.7 30.3-.5.8-7.3-9.6-19.2-29.3L603.5 599h-21.7zm160.3.5c-.9 2.4-9.3 24.1-18.7 48.3-9.3 24.2-19 49.2-21.5 55.5s-5.1 13.2-5.9 15.2l-1.3 3.8h15.5l7-19.3 6.9-19.2h51.9l7.1 19 7 19 10.6.3 10.6.3-11.4-29.3c-6.3-16.1-17.3-44.7-24.6-63.5L764.5 599h-18.3zm17 38.8c4.2 11.8 8.8 24.1 10.1 27.2l2.3 5.8h-21c-11.5 0-20.9-.2-20.9-.5s4.1-11.6 9.1-25.2c5-13.7 9.6-26.1 10.1-27.6.6-1.6 1.4-2.5 1.8-2 .4.4 4.2 10.5 8.5 22.3"></path></svg></svg></g></g><defs><clipPath id="SvgjsClipPath1099"><rect width="1000" height="1000" x="0" y="0" rx="350" ry="350"></rect></clipPath></defs></svg></g></svg>