<?xml version="1.0" standalone="no"?>
<!DOCTYPE svg PUBLIC "-//W3C//DTD SVG 20010904//EN"
 "http://www.w3.org/TR/2001/REC-SVG-20010904/DTD/svg10.dtd">
<svg version="1.0" xmlns="http://www.w3.org/2000/svg"
 width="1024.000000pt" height="1024.000000pt" viewBox="0 0 1024.000000 1024.000000"
 preserveAspectRatio="xMidYMid meet">

<g transform="translate(0.000000,1024.000000) scale(0.100000,-0.100000)"
fill="#000000" stroke="none">
<path d="M5142 8605 c-29 -13 -74 -39 -100 -56 -60 -42 -213 -190 -259 -251
l-35 -48 -41 50 c-118 141 -276 209 -485 210 -97 0 -125 -8 -142 -39 -8 -16
-2 -28 29 -66 67 -81 82 -147 92 -395 4 -118 13 -237 19 -265 55 -260 205
-469 432 -602 43 -25 82 -51 88 -58 7 -9 -1 -31 -32 -81 -85 -140 -151 -304
-182 -454 -9 -41 -21 -141 -28 -222 -7 -81 -16 -144 -20 -142 -4 3 -8 16 -8
29 0 12 -13 76 -30 141 -50 201 -149 376 -280 498 -143 132 -293 204 -545 261
-137 31 -171 32 -185 4 -14 -26 -4 -38 65 -84 88 -59 146 -160 204 -355 41
-138 81 -217 143 -286 66 -72 132 -116 298 -199 162 -81 201 -107 297 -198 63
-60 75 -77 89 -126 84 -305 212 -531 418 -736 141 -140 257 -225 413 -302 123
-62 146 -63 141 -11 -3 31 -10 36 -93 78 -106 53 -198 138 -234 215 -35 75
-40 197 -12 298 40 147 111 259 193 307 68 38 133 39 292 5 148 -32 262 -34
322 -4 76 36 134 120 134 194 0 11 -6 45 -14 75 l-14 55 43 40 c52 47 55 56
36 112 -13 39 -12 43 8 69 32 41 28 87 -14 133 -39 43 -38 45 33 76 23 10 58
36 77 57 58 64 45 113 -67 255 -132 166 -151 209 -168 373 -11 116 -37 236
-65 303 -20 47 -19 91 1 108 9 8 49 30 88 49 86 43 95 65 45 116 -52 54 -126
77 -242 78 -95 0 -98 1 -92 20 14 49 45 286 45 344 0 61 -17 123 -38 136 -49
30 -200 23 -309 -15 -31 -10 -59 -19 -63 -19 -4 0 -10 34 -12 75 -4 63 -12 90
-47 160 -59 119 -92 135 -189 90z m101 -118 c37 -57 68 -205 49 -233 -4 -6
-47 -37 -96 -69 -256 -168 -415 -405 -459 -687 -15 -91 -20 -87 -37 27 -14
101 -12 240 5 336 45 258 167 451 377 599 83 59 134 67 161 27z m-871 -78
c118 -25 266 -125 312 -212 19 -33 19 -34 -9 -103 -88 -220 -92 -542 -11 -800
14 -43 24 -79 22 -81 -6 -6 -133 106 -184 161 -142 156 -198 328 -208 636 -6
179 -24 302 -55 361 -10 21 -19 41 -19 44 0 9 97 5 152 -6z m1309 -178 c21
-17 23 -25 21 -107 -10 -392 -202 -694 -543 -853 -106 -50 -317 -123 -323
-112 -3 4 -11 41 -17 82 -39 248 78 576 263 744 79 72 252 181 340 215 126 49
223 60 259 31z m251 -506 c56 -7 68 -19 36 -36 -53 -28 -113 -89 -197 -198
-194 -254 -338 -339 -611 -357 l-85 -5 121 59 c67 33 150 79 185 103 126 85
233 211 305 362 l34 72 58 5 c58 6 70 5 154 -5z m-61 -287 c26 -49 60 -199 70
-312 15 -180 27 -206 181 -397 43 -53 78 -106 78 -117 0 -24 -22 -43 -87 -76
-91 -45 -104 -87 -48 -160 19 -26 35 -51 35 -56 0 -5 -18 -21 -40 -35 -50 -32
-51 -55 -4 -93 l36 -30 -35 -17 c-50 -24 -60 -56 -52 -167 5 -83 4 -96 -15
-126 -45 -72 -160 -90 -320 -51 -178 43 -264 43 -351 -2 -98 -49 -208 -216
-243 -369 -18 -73 -21 -218 -7 -268 5 -17 6 -32 2 -32 -4 0 -46 38 -93 85
-200 197 -251 349 -169 502 18 33 82 115 142 183 151 170 186 221 288 434 49
103 113 224 141 271 45 73 50 86 40 105 -10 20 -17 21 -58 15 -176 -26 -407
-156 -517 -292 -127 -156 -212 -381 -216 -572 -1 -45 -1 -45 -26 39 -24 77
-26 102 -27 255 0 174 10 269 46 410 40 160 105 313 173 407 42 57 74 68 203
68 51 0 136 5 188 11 279 31 442 120 609 333 33 42 61 76 62 76 1 0 8 -10 14
-22z m-1996 -492 c247 -118 406 -317 484 -606 10 -39 17 -70 15 -70 -1 0 -31
44 -66 98 -127 192 -373 472 -503 570 -33 25 -64 50 -70 55 -20 19 50 -5 140
-47z m30 -218 c100 -103 174 -189 252 -293 56 -75 156 -225 150 -225 -17 0
-279 140 -324 173 -102 76 -161 170 -209 338 -15 52 -35 113 -45 137 -11 24
-19 46 -19 49 0 10 116 -96 195 -179z m1257 -349 c-64 -128 -132 -254 -149
-278 -18 -24 -82 -97 -142 -163 -61 -65 -118 -132 -128 -149 -9 -16 -20 -29
-23 -29 -11 0 -11 93 0 173 41 298 199 516 470 646 46 23 85 39 86 38 2 -2
-49 -109 -114 -238z"/>
<path d="M2170 3615 l0 -635 90 0 90 0 2 283 3 282 258 3 257 2 0 60 0 60
-260 0 -260 0 0 220 0 220 310 0 310 0 0 70 0 70 -400 0 -400 0 0 -635z"/>
<path d="M3350 3615 l0 -635 95 0 95 0 0 248 0 247 114 0 114 0 142 -228 c79
-126 150 -237 159 -248 14 -18 27 -20 124 -17 l107 3 -175 263 c-96 144 -169
262 -163 262 25 0 135 58 172 91 83 73 122 175 113 300 -9 141 -78 243 -200
300 -89 41 -161 49 -444 49 l-253 0 0 -635z m489 495 c146 -24 211 -98 211
-242 0 -92 -18 -145 -64 -193 -59 -62 -113 -75 -298 -75 l-148 0 0 260 0 260
118 0 c64 0 146 -5 181 -10z"/>
<path d="M4705 3615 l0 -635 410 0 410 0 -1 67 -2 68 -311 3 -311 2 0 225 0
225 250 0 250 0 0 65 0 65 -250 0 -250 0 0 210 0 210 295 -3 295 -3 0 68 0 68
-392 0 -393 0 0 -635z"/>
<path d="M5842 4213 c12 -21 115 -190 228 -375 l205 -337 0 -261 0 -260 98 0
97 0 0 261 0 262 129 211 c70 116 172 282 225 369 53 86 96 159 96 162 0 3
-36 5 -81 3 l-81 -3 -170 -290 c-93 -159 -172 -296 -177 -303 -5 -8 -73 96
-192 293 l-184 305 -108 0 -109 0 24 -37z"/>
<path d="M7445 4208 c-9 -24 -93 -241 -187 -483 -93 -242 -190 -492 -215 -555
-25 -63 -51 -132 -59 -152 l-13 -38 77 0 78 0 70 193 69 192 260 0 259 0 71
-190 70 -190 106 -3 106 -3 -114 293 c-63 161 -173 447 -246 635 l-132 343
-91 0 -92 0 -17 -42z m170 -388 c42 -118 88 -241 101 -272 l23 -58 -210 0
c-115 0 -209 2 -209 5 0 3 41 116 91 252 50 137 96 261 101 276 6 16 14 25 18
20 4 -4 42 -105 85 -223z"/>
<path d="M2640 2305 l0 -185 95 0 c64 0 105 5 124 14 30 16 51 53 51 92 0 25
-33 67 -60 76 -9 3 -6 12 13 31 19 18 27 37 27 59 0 71 -48 98 -177 98 l-73 0
0 -185z m176 114 c21 -17 17 -56 -8 -73 -12 -9 -42 -16 -65 -16 l-43 0 0 48
c0 27 3 52 8 56 10 11 92 -1 108 -15z m6 -156 c24 -22 24 -69 -1 -83 -11 -5
-42 -10 -70 -10 l-51 0 0 55 0 55 52 0 c34 0 58 -6 70 -17z"/>
<path d="M3080 2305 l0 -185 120 0 120 0 0 25 c0 25 -1 25 -90 25 l-90 0 0 55
0 55 79 0 c74 0 80 2 78 20 -1 18 -8 20 -79 20 l-78 0 0 55 0 55 85 0 85 0 0
30 0 30 -115 0 -115 0 0 -185z"/>
<path d="M3591 2468 c-5 -13 -36 -93 -70 -178 -33 -85 -61 -158 -61 -162 0 -5
13 -8 28 -8 24 0 30 6 43 43 l16 42 80 3 80 3 13 -42 c15 -45 25 -52 63 -47
l25 3 -72 180 c-71 177 -73 180 -104 183 -26 3 -34 -1 -41 -20z m70 -146 l27
-67 -55 -3 c-30 -2 -57 -1 -59 1 -3 2 7 37 22 76 15 39 29 69 33 66 3 -4 18
-37 32 -73z"/>
<path d="M3932 2347 c3 -155 11 -179 65 -214 36 -24 130 -24 166 0 55 36 62
59 62 212 l0 140 -32 3 -33 3 0 -138 c0 -154 -7 -176 -60 -186 -38 -8 -75 8
-89 40 -6 13 -11 80 -11 153 l0 130 -36 0 -36 0 4 -143z"/>
<path d="M4380 2460 c0 -29 1 -30 50 -30 l50 0 0 -155 0 -155 35 0 35 0 0 155
0 155 50 0 c49 0 50 1 50 30 l0 30 -135 0 -135 0 0 -30z"/>
<path d="M4801 2453 c13 -21 42 -69 66 -108 41 -66 43 -73 43 -147 l0 -78 35
0 35 0 0 80 0 81 65 100 c36 55 65 102 65 104 0 3 -13 5 -29 5 -26 0 -35 -10
-82 -85 l-52 -86 -51 86 c-47 80 -53 85 -84 85 l-34 0 23 -37z"/>
<path d="M5552 2470 c-58 -36 -66 -110 -16 -149 14 -11 49 -27 77 -37 86 -28
111 -66 65 -98 -33 -23 -82 -20 -115 8 -22 19 -31 22 -50 13 -30 -13 -29 -20
7 -51 88 -73 228 -45 246 50 9 46 -15 79 -74 105 -104 46 -117 54 -120 76 -4
24 31 53 63 53 11 0 34 -9 52 -19 31 -19 31 -19 49 0 16 17 16 22 4 30 -68 45
-134 52 -188 19z"/>
<path d="M5967 2323 c-36 -93 -69 -176 -73 -185 -5 -15 -1 -18 24 -18 26 0 31
6 46 45 l18 45 78 0 78 0 18 -45 c15 -41 20 -45 51 -45 19 0 33 4 31 9 -144
369 -140 361 -174 361 -31 0 -31 0 -97 -167z m124 10 c13 -37 26 -71 27 -75 2
-4 -24 -8 -58 -8 -55 0 -61 2 -56 18 32 87 52 132 57 132 3 0 16 -30 30 -67z"/>
<path d="M6380 2305 l0 -185 120 0 120 0 0 28 0 27 -85 -3 -85 -3 0 160 0 161
-35 0 -35 0 0 -185z"/>
<path d="M6827 2469 c-110 -58 -127 -224 -31 -308 103 -91 267 -43 304 87 15
57 12 84 -17 142 -22 42 -38 60 -72 77 -56 29 -131 30 -184 2z m167 -64 c51
-47 61 -120 23 -176 -30 -44 -63 -61 -111 -55 -102 12 -142 151 -66 228 39 38
114 40 154 3z"/>
<path d="M7270 2305 l0 -185 30 0 30 0 0 131 0 132 103 -131 c93 -120 105
-131 135 -132 l32 0 -2 183 -3 182 -32 3 -32 3 -3 -130 -3 -130 -103 129 c-82
102 -109 130 -128 130 l-24 0 0 -185z"/>
</g>
</svg>
